<svg width="81" height="66" viewBox="0 0 81 66" fill="none" xmlns="http://www.w3.org/2000/svg">
<g clip-path="url(#clip0_1865_3820)">
<path d="M50.0843 50.1204C50.0843 47.3769 53.585 43.979 60.8968 43.979C61.3347 43.979 61.7725 43.979 62.2037 44.0238C61.643 49.2978 57.4364 52.9086 53.3258 52.9086C51.3532 52.9086 50.0843 51.9919 50.0843 50.1204ZM35.8984 21.2873H35.9878L33.7047 42.1074C31.2368 41.3737 28.7192 40.8201 26.1716 40.451L35.8984 21.2873ZM20.0527 40.0162C14.6264 40.0162 8.93639 41.3678 6.00092 44.5886C4.3637 41.5091 3.53564 38.0617 3.59491 34.5719C3.59491 25.2926 9.6803 16.6723 21.3686 11.1988L19.8807 8.06087C6.17964 14.2359 0.00488281 24.4229 0.00488281 34.5719C0.00488281 39.364 1.14422 43.9857 4.16011 48.3766C4.07522 48.8652 4.03054 49.3628 4.03054 49.8604C4.03054 53.5586 6.35166 56.2169 11.1681 56.2169C16.2036 56.2169 20.4906 52.7741 23.0753 45.9828H19.3088C17.4278 50.5104 14.3628 52.8683 11.1681 52.8683C8.67277 52.8683 7.57812 51.7364 7.57812 49.8648C7.57812 46.6417 11.5166 43.3738 20.0996 43.3738C24.6011 43.3873 29.0736 44.0933 33.3606 45.465L32.7507 51.1671H36.2514L39.5354 20.4624C41.5504 20.0366 43.6012 19.8214 45.6632 19.8124C53.3683 19.8124 55.4704 22.5155 55.4704 25.4338C55.4704 29.3114 52.2758 32.0078 44.6132 32.8797L45.7526 22.3855L42.2497 22.5155L39.1846 51.1716H42.6875L44.2178 36.6698C46.8281 35.9674 49.5135 35.5844 52.2155 35.529C57.3805 35.529 60.8857 37.6202 61.9356 40.7245C61.5868 40.6894 61.2362 40.6752 60.8857 40.6819C50.9444 40.6819 46.5278 45.734 46.5278 50.1786C46.5278 54.0966 49.4655 56.2752 53.27 56.2752C58.817 56.2752 64.8286 51.8305 65.6686 44.5573C68.202 45.1467 70.6281 46.1329 72.8487 47.48C66.8504 56.32 54.7243 62.1117 40.1899 62.1117C33.0546 62.1117 24.1275 60.5876 18.2164 56.5374L16.3756 59.4602C22.2018 63.6404 31.522 65.6016 40.1966 65.6016C63.7921 65.6016 80.4286 51.7498 80.4286 34.6347C80.4286 16.6476 62.3467 3.67001 40.2436 3.67001C38.8853 3.67001 37.9224 3.7126 36.6066 3.80001L36.9574 7.24053C38.0073 7.19794 39.1467 7.15087 40.1966 7.15087C59.9384 7.15087 76.8386 18.9988 76.8386 34.6347C76.8464 38.0763 76.0652 41.4736 74.5554 44.564C72.3214 43.1273 69.0822 41.8205 65.6239 41.1683C64.88 36.9881 61.424 33.4154 54.7243 32.7273C56.0349 32.0097 57.1302 30.9533 57.8966 29.6678C58.6598 28.3856 59.0643 26.9206 59.0672 25.4271C59.0672 20.0702 55.2605 16.4548 45.6722 16.4548C43.7509 16.4593 41.8342 16.6185 39.9397 16.9345L40.3195 13.2631L36.7764 12.306L33.7136 18.3264C28.7653 19.7564 23.951 21.8566 21.1049 23.4659L22.6799 26.4716C25.5567 25.003 28.5251 23.7227 31.5667 22.6388L22.7268 40.1036C21.8064 40.0588 20.9285 40.0162 20.0527 40.0162ZM33.7605 8.87673C33.7605 5.0888 29.4266 1.68863 24.6235 0.601562C24.142 2.55531 23.8753 4.55609 23.8282 6.56811C23.8282 11.8824 26.5849 13.4491 29.1697 13.4491C31.9219 13.4491 33.7605 11.6202 33.7605 8.87673Z" fill="#63C634"/>
</g>
<defs>
<clipPath id="clip0_1865_3820">
<rect width="80.4237" height="65" fill="white" transform="translate(0.00488281 0.601562)"/>
</clipPath>
</defs>
</svg>
