<svg width="82" height="66" viewBox="0 0 82 66" fill="none" xmlns="http://www.w3.org/2000/svg">
<g id=" Azbuka" clip-path="url(#clip0_3709_774)">
<path id="Vector" d="M51.0069 50.1204C51.0069 47.3769 54.5076 43.979 61.8194 43.979C62.2573 43.979 62.6951 43.979 63.1263 44.0238C62.5656 49.2978 58.359 52.9086 54.2484 52.9086C52.2758 52.9086 51.0069 51.9919 51.0069 50.1204ZM36.821 21.2873H36.9104L34.6273 42.1074C32.1594 41.3737 29.6418 40.8201 27.0942 40.451L36.821 21.2873ZM20.9753 40.0162C15.549 40.0162 9.85899 41.3678 6.92353 44.5886C5.2863 41.5091 4.45825 38.0617 4.51752 34.5719C4.51752 25.2926 10.6029 16.6723 22.2912 11.1988L20.8033 8.06087C7.10225 14.2359 0.92749 24.4229 0.92749 34.5719C0.92749 39.364 2.06683 43.9857 5.08272 48.3766C4.99782 48.8652 4.95315 49.3628 4.95315 49.8604C4.95315 53.5586 7.27426 56.2169 12.0908 56.2169C17.1262 56.2169 21.4132 52.7741 23.9979 45.9828H20.2314C18.3504 50.5104 15.2854 52.8683 12.0908 52.8683C9.59538 52.8683 8.50073 51.7364 8.50073 49.8648C8.50073 46.6417 12.4393 43.3738 21.0223 43.3738C25.5237 43.3873 29.9962 44.0933 34.2832 45.465L33.6734 51.1671H37.174L40.458 20.4624C42.473 20.0366 44.5239 19.8214 46.5858 19.8124C54.2909 19.8124 56.3931 22.5155 56.3931 25.4338C56.3931 29.3114 53.1984 32.0078 45.5359 32.8797L46.6752 22.3855L43.1723 22.5155L40.1073 51.1716H43.6102L45.1404 36.6698C47.7507 35.9674 50.4361 35.5844 53.1381 35.529C58.3031 35.529 61.8083 37.6202 62.8582 40.7245C62.5094 40.6894 62.1588 40.6752 61.8083 40.6819C51.867 40.6819 47.4504 45.734 47.4504 50.1786C47.4504 54.0966 50.3881 56.2752 54.1926 56.2752C59.7396 56.2752 65.7513 51.8305 66.5912 44.5573C69.1246 45.1467 71.5507 46.1329 73.7713 47.48C67.773 56.32 55.6469 62.1117 41.1125 62.1117C33.9772 62.1117 25.0501 60.5876 19.139 56.5374L17.2982 59.4602C23.1244 63.6404 32.4447 65.6016 41.1192 65.6016C64.7147 65.6016 81.3512 51.7498 81.3512 34.6347C81.3512 16.6476 63.2693 3.67001 41.1662 3.67001C39.8079 3.67001 38.845 3.7126 37.5292 3.80001L37.88 7.24053C38.9299 7.19794 40.0693 7.15087 41.1192 7.15087C60.861 7.15087 77.7612 18.9988 77.7612 34.6347C77.769 38.0763 76.9879 41.4736 75.4781 44.564C73.2441 43.1273 70.0048 41.8205 66.5466 41.1683C65.8026 36.9881 62.3466 33.4154 55.6469 32.7273C56.9575 32.0097 58.0528 30.9533 58.8192 29.6678C59.5825 28.3856 59.9869 26.9206 59.9898 25.4271C59.9898 20.0702 56.1831 16.4548 46.5948 16.4548C44.6735 16.4593 42.7568 16.6185 40.8623 16.9345L41.2421 13.2631L37.699 12.306L34.6362 18.3264C29.6879 19.7564 24.8737 21.8566 22.0275 23.4659L23.6025 26.4716C26.4793 25.003 29.4478 23.7227 32.4893 22.6388L23.6494 40.1036C22.729 40.0588 21.8511 40.0162 20.9753 40.0162ZM34.6831 8.87673C34.6831 5.0888 30.3492 1.68863 25.5461 0.601562C25.0646 2.55531 24.7979 4.55609 24.7508 6.56811C24.7508 11.8824 27.5075 13.4491 30.0923 13.4491C32.8445 13.4491 34.6831 11.6202 34.6831 8.87673Z" fill="black"/>
</g>
<defs>
<clipPath id="clip0_3709_774">
<rect width="80.4237" height="65" fill="white" transform="translate(0.92749 0.601562)"/>
</clipPath>
</defs>
</svg>
