<svg width="152" height="33" viewBox="0 0 152 33" fill="none" xmlns="http://www.w3.org/2000/svg">
<g clip-path="url(#clip0_1840_3665)">
<path d="M82.334 0.644531H110.146V2.32801H82.334V0.644531ZM23.2732 4.40105V15.9767C21.2078 16.585 19.0679 16.9034 16.9149 16.9228C13.2697 16.9228 10.4592 15.8237 10.4592 13.5976V4.40105H0.233154V13.9871C0.233154 20.3871 5.92359 23.4341 14.3271 23.4341C17.3361 23.4048 20.3341 23.0644 23.2732 22.4184V31.6984H33.4992V4.40105H23.2732ZM70.3966 17.0063V16.895L66.8905 10.6897L64.7479 6.83584L63.4401 4.48453H52.3932L37.2001 31.7958H47.6905L49.9027 27.4967H65.9166L68.1288 31.7958H78.6332L70.3966 17.0063ZM55.9549 15.615L56.9149 13.7089C57.3799 12.8339 57.7173 11.8969 57.9166 10.9263C58.0511 11.5679 58.242 12.1965 58.4871 12.8045C58.6262 13.1384 58.7653 13.4306 58.9045 13.695L60.9079 17.6602L62.8419 21.5558V21.6532H52.9358V21.5558L55.9549 15.615ZM92.5601 25.4654V21.0132H108.518V14.808H92.5601V10.6341H110.146V4.40105H82.3201V31.6984H110.508V25.4654H92.5601ZM139.447 17.7019L151.607 4.40105H140.282L131.503 14.7384H126.633V4.40105H116.421V31.6984H126.633V21.1663H131.447L140.838 31.6984H152.164L139.447 17.7019Z" fill="black"/>
<path d="M56.5158 21.6506H57.6927C58.2366 20.6448 58.9053 19.7103 59.6838 18.8695C60.3065 18.1554 61.0508 17.5572 61.882 17.1026C63.851 15.8964 66.761 16.3401 69.7588 16.7971C73.158 17.3154 76.6701 17.8509 79.0507 16.0173C82.2368 13.5686 82.0977 7.7669 81.9168 6.12516C81.9145 6.08551 81.9023 6.04707 81.8812 6.0134C81.8601 5.97973 81.8309 5.95191 81.7963 5.9325C81.7616 5.91309 81.7226 5.90272 81.6829 5.90235C81.6432 5.90198 81.604 5.91162 81.569 5.93038C80.5151 6.41409 79.4016 6.75562 78.2577 6.94603L77.8681 7.02951C76.0658 7.27768 74.2423 7.33365 72.4281 7.19647C71.4117 7.10838 70.5751 7.02441 69.8538 6.95201C67.6128 6.72708 66.4832 6.61371 64.5255 6.83473C64.136 6.95995 63.9412 6.95995 63.7047 6.95995C61.2655 7.57732 59.1341 9.06086 57.7081 11.1339C56.6263 12.8115 55.9829 14.7339 55.837 16.7248C55.7143 18.3997 55.9471 20.0779 56.5158 21.6506Z" fill="#65A30D"/>
</g>
<defs>
<clipPath id="clip0_1840_3665">
<rect width="151.652" height="32" fill="white" transform="translate(0.233154 0.601562)"/>
</clipPath>
</defs>
</svg>
