<svg width="152" height="33" viewBox="0 0 152 33" fill="none" xmlns="http://www.w3.org/2000/svg">
<g id="Logotype" clip-path="url(#clip0_3712_103)">
<path id="Vector" d="M82.1009 0.144531H109.913V1.82801H82.1009V0.144531ZM23.04 3.90105V15.4767C20.9746 16.085 18.8347 16.4034 16.6817 16.4228C13.0365 16.4228 10.2261 15.3237 10.2261 13.0976V3.90105H0V13.4871C0 19.8871 5.69043 22.9341 14.0939 22.9341C17.103 22.9048 20.1009 22.5644 23.04 21.9184V31.1984H33.2661V3.90105H23.04ZM70.1635 16.5063V16.395L66.6574 10.1897L64.5148 6.33584L63.207 3.98453H52.16L36.967 31.2958H47.4574L49.6696 26.9967H65.6835L67.8957 31.2958H78.4L70.1635 16.5063ZM55.7217 15.115L56.6817 13.2089C57.1468 12.3339 57.4841 11.3969 57.6835 10.4263C57.8179 11.0679 58.0088 11.6965 58.2539 12.3045C58.393 12.6384 58.5322 12.9306 58.6713 13.195L60.6748 17.1602L62.6087 21.0558V21.1532H52.7026V21.0558L55.7217 15.115ZM92.327 24.9654V20.5132H108.285V14.308H92.327V10.1341H109.913V3.90105H82.087V31.1984H110.275V24.9654H92.327ZM139.214 17.2019L151.374 3.90105H140.049L131.27 14.2384H126.4V3.90105H116.188V31.1984H126.4V20.6663H131.214L140.605 31.1984H151.93L139.214 17.2019Z" fill="black"/>
<g id="Subtract">
<mask id="path-2-inside-1_3712_103" fill="white">
<path d="M56.2824 21.1506H57.4593C58.0032 20.1448 58.6719 19.2103 59.4504 18.3695C60.0731 17.6554 60.8174 17.0572 61.6487 16.6026C63.6176 15.3964 66.5276 15.8401 69.5254 16.2971C72.9247 16.8154 76.4367 17.3509 78.8173 15.5173C82.0034 13.0686 81.8643 7.2669 81.6834 5.62516C81.6811 5.58551 81.6689 5.54707 81.6478 5.5134C81.6267 5.47973 81.5975 5.45191 81.5629 5.4325C81.5282 5.41309 81.4892 5.40272 81.4495 5.40235C81.4098 5.40198 81.3706 5.41162 81.3356 5.43038C80.2817 5.91409 79.1682 6.25562 78.0243 6.44603L77.6347 6.52951C75.8324 6.77768 74.0089 6.83365 72.1947 6.69647C71.1783 6.60838 70.3417 6.52441 69.6204 6.45201C67.3794 6.22708 66.2498 6.11371 64.2921 6.33473C63.9026 6.45995 63.7078 6.45995 63.4713 6.45995C61.0321 7.07732 58.9007 8.56086 57.4747 10.6339C56.3929 12.3115 55.7495 14.2339 55.6036 16.2248C55.4809 17.8997 55.7137 19.5779 56.2824 21.1506Z"/>
</mask>
<path d="M56.2824 21.1506H57.4593C58.0032 20.1448 58.6719 19.2103 59.4504 18.3695C60.0731 17.6554 60.8174 17.0572 61.6487 16.6026C63.6176 15.3964 66.5276 15.8401 69.5254 16.2971C72.9247 16.8154 76.4367 17.3509 78.8173 15.5173C82.0034 13.0686 81.8643 7.2669 81.6834 5.62516C81.6811 5.58551 81.6689 5.54707 81.6478 5.5134C81.6267 5.47973 81.5975 5.45191 81.5629 5.4325C81.5282 5.41309 81.4892 5.40272 81.4495 5.40235C81.4098 5.40198 81.3706 5.41162 81.3356 5.43038C80.2817 5.91409 79.1682 6.25562 78.0243 6.44603L77.6347 6.52951C75.8324 6.77768 74.0089 6.83365 72.1947 6.69647C71.1783 6.60838 70.3417 6.52441 69.6204 6.45201C67.3794 6.22708 66.2498 6.11371 64.2921 6.33473C63.9026 6.45995 63.7078 6.45995 63.4713 6.45995C61.0321 7.07732 58.9007 8.56086 57.4747 10.6339C56.3929 12.3115 55.7495 14.2339 55.6036 16.2248C55.4809 17.8997 55.7137 19.5779 56.2824 21.1506Z" fill="#black"/>
<path d="M56.2824 21.1506L55.342 21.4907L55.5806 22.1506H56.2824V21.1506ZM57.4593 21.1506V22.1506H58.0554L58.339 21.6263L57.4593 21.1506ZM59.4504 18.3695L60.1841 19.0489L60.1943 19.038L60.2041 19.0268L59.4504 18.3695ZM61.6487 16.6026L62.1285 17.4799L62.1501 17.4681L62.171 17.4553L61.6487 16.6026ZM69.5254 16.2971L69.6761 15.3085L69.5254 16.2971ZM78.8173 15.5173L78.208 14.7245L78.2072 14.7251L78.8173 15.5173ZM81.6834 5.62516L80.6851 5.68309L80.6866 5.70894L80.6894 5.73467L81.6834 5.62516ZM81.6478 5.5134L82.4955 4.98294V4.98294L81.6478 5.5134ZM81.5629 5.4325L81.0743 6.30501L81.0743 6.30501L81.5629 5.4325ZM81.4495 5.40235L81.4588 4.4024H81.4588L81.4495 5.40235ZM81.3356 5.43038L81.7527 6.33923L81.7807 6.32638L81.8079 6.31183L81.3356 5.43038ZM78.0243 6.44603L77.8601 5.45961L77.8373 5.4634L77.8148 5.46823L78.0243 6.44603ZM77.6347 6.52951L77.7711 7.52017L77.8079 7.5151L77.8443 7.50732L77.6347 6.52951ZM72.1947 6.69647L72.1084 7.69279L72.1193 7.69362L72.1947 6.69647ZM69.6204 6.45201L69.5205 7.44701L69.6204 6.45201ZM64.2921 6.33473L64.1799 5.34104L64.081 5.35222L63.9861 5.3827L64.2921 6.33473ZM63.4713 6.45995V5.45995H63.3467L63.2259 5.49052L63.4713 6.45995ZM57.4747 10.6339L56.6508 10.0671L56.6424 10.0794L56.6343 10.0919L57.4747 10.6339ZM55.6036 16.2248L56.601 16.2978L55.6036 16.2248ZM56.2824 22.1506H57.4593V20.1506H56.2824V22.1506ZM58.7166 17.6901C57.8811 18.5925 57.1634 19.5955 56.5797 20.6749L58.339 21.6263C58.843 20.6942 59.4627 19.8281 60.1841 19.0489L58.7166 17.6901ZM61.1688 15.7252C60.234 16.2365 59.397 16.9092 58.6967 17.7123L60.2041 19.0268C60.7492 18.4016 61.4008 17.8779 62.1285 17.4799L61.1688 15.7252ZM69.6761 15.3085C68.1942 15.0826 66.645 14.8445 65.214 14.8262C63.7832 14.8079 62.3431 15.0044 61.1263 15.7498L62.171 17.4553C62.9232 16.9945 63.9226 16.8098 65.1884 16.826C66.4541 16.8423 67.8587 17.0546 69.3746 17.2857L69.6761 15.3085ZM78.2072 14.7251C77.2529 15.4601 76.023 15.7609 74.5343 15.7893C73.0351 15.8179 71.3952 15.5707 69.6761 15.3085L69.3746 17.2857C71.0548 17.5418 72.8706 17.8214 74.5724 17.789C76.2848 17.7563 78.0012 17.4081 79.4275 16.3096L78.2072 14.7251ZM80.6894 5.73467C80.7723 6.48653 80.8488 8.2499 80.5278 10.0974C80.2016 11.9746 79.5018 13.7301 78.208 14.7245L79.4267 16.3102C81.319 14.8559 82.1427 12.4861 82.4982 10.4398C82.8589 8.36391 82.7755 6.40554 82.6774 5.51566L80.6894 5.73467ZM80.8001 6.04386C80.7321 5.93511 80.6925 5.81103 80.6851 5.68309L82.6818 5.56724C82.6697 5.35999 82.6057 5.15904 82.4955 4.98294L80.8001 6.04386ZM81.0743 6.30501C80.9624 6.24237 80.8681 6.15256 80.8001 6.04386L82.4955 4.98294C82.3854 4.8069 82.2327 4.66145 82.0515 4.55999L81.0743 6.30501ZM81.4402 6.40231C81.312 6.40112 81.1861 6.36765 81.0743 6.30501L82.0515 4.55999C81.8703 4.45853 81.6665 4.40433 81.4588 4.4024L81.4402 6.40231ZM81.8079 6.31183C81.6948 6.3724 81.5684 6.4035 81.4402 6.40231L81.4588 4.4024C81.2512 4.40046 81.0464 4.45084 80.8633 4.54894L81.8079 6.31183ZM78.1885 7.43246C79.4198 7.22751 80.6183 6.85988 81.7527 6.33923L80.9185 4.52153C79.9451 4.96829 78.9166 5.28374 77.8601 5.45961L78.1885 7.43246ZM77.8443 7.50732L78.2338 7.42384L77.8148 5.46823L77.4252 5.55171L77.8443 7.50732ZM72.1193 7.69362C74.0041 7.83614 75.8987 7.778 77.7711 7.52017L77.4983 5.53886C75.7662 5.77737 74.0136 5.83115 72.2701 5.69932L72.1193 7.69362ZM69.5205 7.44701C70.242 7.51943 71.0845 7.604 72.1084 7.69273L72.2811 5.7002C71.2721 5.61276 70.4415 5.5294 69.7202 5.45701L69.5205 7.44701ZM64.4043 7.32842C66.2467 7.12041 67.2832 7.22245 69.5205 7.44701L69.7202 5.45701C67.4756 5.23171 66.2529 5.107 64.1799 5.34104L64.4043 7.32842ZM63.4713 7.45995C63.7627 7.45995 64.0719 7.4559 64.5981 7.28676L63.9861 5.3827C63.8395 5.42983 63.7555 5.44521 63.7019 5.45181C63.6438 5.45898 63.5933 5.45995 63.4713 5.45995V7.45995ZM58.2986 11.2006C59.587 9.3276 61.5128 7.98719 63.7166 7.42938L63.2259 5.49052C60.5514 6.16746 58.2144 7.79412 56.6508 10.0671L58.2986 11.2006ZM56.601 16.2978C56.7346 14.4739 57.324 12.7127 58.3151 11.1758L56.6343 10.0919C55.4617 11.9102 54.7644 13.9938 54.6063 16.1517L56.601 16.2978ZM57.2228 20.8105C56.7018 19.3698 56.4886 17.8322 56.601 16.2978L54.6063 16.1517C54.4733 17.9671 54.7256 19.7861 55.342 21.4907L57.2228 20.8105Z" fill="black" mask="url(#path-2-inside-1_3712_103)"/>
</g>
</g>
<defs>
<clipPath id="clip0_3712_103">
<rect width="151.652" height="32" fill="white" transform="translate(0 0.101562)"/>
</clipPath>
</defs>
</svg>
