<svg width="147" height="33" viewBox="0 0 147 33" fill="none" xmlns="http://www.w3.org/2000/svg">
<path d="M61.4539 24.411H48.8064L64.953 3.04506C65.3049 2.57591 65.2071 1.89173 64.738 1.53986C64.5621 1.40303 64.3275 1.32484 64.0929 1.32484H40.7331C38.6806 1.32484 36.9995 3.00596 36.9995 5.0585C36.9995 7.11103 38.6806 8.79215 40.7331 8.79215H51.2304L35.0251 30.1776C34.6537 30.6468 34.7514 31.3114 35.2206 31.6828C35.4161 31.8392 35.6506 31.9174 35.8852 31.8978H61.4344C63.4869 31.8001 65.0703 30.0408 64.9726 27.9687C64.8748 26.053 63.3501 24.5283 61.4344 24.4305V24.411H61.4539ZM143.086 1.32484C141.034 1.32484 139.353 3.00596 139.353 5.0585V17.5887L119.179 1.57896C118.729 1.20755 118.045 1.26619 117.674 1.73534C117.517 1.93082 117.439 2.1654 117.439 2.41952V28.1642C117.439 30.2167 119.12 31.8978 121.173 31.8978C123.225 31.8978 124.907 30.2363 124.907 28.1642V15.6339L145.08 31.6633C145.549 32.0347 146.233 31.9565 146.605 31.4873C146.761 31.2918 146.839 31.0573 146.839 30.8227V5.0585C146.82 2.98641 145.158 1.32484 143.086 1.32484ZM89.7007 25.1147C81.1583 25.1147 74.7856 20.6187 74.7856 16.5918C74.7856 12.5649 81.1778 8.06888 89.7007 8.06888C98.2432 8.06888 104.616 12.5649 104.616 16.5918C104.616 20.6187 98.2627 25.1147 89.7007 25.1147ZM89.7007 0.601562C77.3464 0.601562 67.3183 7.75611 67.3183 16.5918C67.3183 25.4275 77.3464 32.582 89.7007 32.582C102.055 32.582 112.083 25.4275 112.083 16.5918C112.083 7.75611 102.055 0.601562 89.7007 0.601562ZM16.22 25.1342C11.5089 25.1342 7.67752 21.3224 7.67752 16.6113C7.67752 11.9003 11.4894 8.06888 16.2004 8.06888C20.9115 8.06888 24.7429 11.8807 24.7429 16.5918V16.6113C24.7429 21.3028 20.931 25.1147 16.22 25.1342ZM16.22 0.601562C7.3843 0.601562 0.229753 7.75611 0.210205 16.5918C0.210205 25.4275 7.36476 32.582 16.2004 32.6016C25.0361 32.6016 32.1907 25.447 32.2102 16.6113V16.5918C32.1907 7.75611 25.0361 0.601562 16.22 0.601562Z" fill="#005BFF"/>
</svg>
