<svg width="148" height="33" viewBox="0 0 148 33" fill="blue" xmlns="http://www.w3.org/2000/svg">
<g id="Ozon">
<path id="Vector" d="M61.7188 23.911H49.0713L65.2179 2.54506C65.5698 2.07591 65.472 1.39173 65.0029 1.03986C64.827 0.903029 64.5924 0.824836 64.3578 0.824836H40.998C38.9455 0.824836 37.2643 2.50596 37.2643 4.5585C37.2643 6.61103 38.9455 8.29215 40.998 8.29215H51.4953L35.29 29.6776C34.9186 30.1468 35.0163 30.8114 35.4855 31.1828C35.681 31.3392 35.9155 31.4174 36.1501 31.3978H61.6993C63.7518 31.3001 65.3352 29.5408 65.2375 27.4687C65.1397 25.553 63.615 24.0283 61.6993 23.9305V23.911H61.7188ZM143.351 0.824836C141.299 0.824836 139.617 2.50596 139.617 4.5585V17.0887L119.444 1.07896C118.994 0.707549 118.31 0.766193 117.939 1.23534C117.782 1.43082 117.704 1.6654 117.704 1.91952V27.6642C117.704 29.7167 119.385 31.3978 121.438 31.3978C123.49 31.3978 125.171 29.7363 125.171 27.6642V15.1339L145.345 31.1633C145.814 31.5347 146.498 31.4565 146.87 30.9873C147.026 30.7918 147.104 30.5573 147.104 30.3227V4.5585C147.085 2.48641 145.423 0.824836 143.351 0.824836ZM89.9656 24.6147C81.4232 24.6147 75.0505 20.1187 75.0505 16.0918C75.0505 12.0649 81.4427 7.56888 89.9656 7.56888C98.5081 7.56888 104.881 12.0649 104.881 16.0918C104.881 20.1187 98.5276 24.6147 89.9656 24.6147ZM89.9656 0.101562C77.6113 0.101562 67.5832 7.25611 67.5832 16.0918C67.5832 24.9275 77.6113 32.082 89.9656 32.082C102.32 32.082 112.348 24.9275 112.348 16.0918C112.348 7.25611 102.32 0.101562 89.9656 0.101562ZM16.4849 24.6342C11.7738 24.6342 7.94241 20.8224 7.94241 16.1113C7.94241 11.4003 11.7543 7.56888 16.4653 7.56888C21.1764 7.56888 25.0078 11.3807 25.0078 16.0918V16.1113C25.0078 20.8028 21.1959 24.6147 16.4849 24.6342ZM16.4849 0.101562C7.64919 0.101562 0.494646 7.25611 0.475098 16.0918C0.475098 24.9275 7.62965 32.082 16.4653 32.1016C25.301 32.1016 32.4555 24.947 32.4751 16.1113V16.0918C32.4555 7.25611 25.301 0.101562 16.4849 0.101562Z" fill="black"/>
</g>
</svg>
