<svg width="276" height="33" viewBox="0 0 276 33" fill="none" xmlns="http://www.w3.org/2000/svg">
<path d="M9.23834 32.017L0.866455 1.15436H6.35816L12.7906 24.8585L19.6844 1.1523L24.8036 1.15436L31.7215 24.9844L38.1829 1.16019L43.6745 1.1523L35.299 32.0115L28.9335 32.005L22.2461 8.95722L15.5524 32.0109L9.23834 32.017Z" fill="url(#paint0_linear_1865_3823)"/>
<path d="M47.4619 1.17036H52.6894V31.997H47.4619V1.17036Z" fill="url(#paint1_linear_1865_3823)"/>
<path d="M63.8659 27.1614H76.5924V31.997H58.7465V1.17036H63.8659V27.1614Z" fill="url(#paint2_linear_1865_3823)"/>
<path d="M92.6722 1.2059C96.9623 1.2059 100.532 2.69928 103.344 5.65036C106.192 8.60145 107.634 12.2637 107.634 16.6014C107.634 20.9037 106.192 24.5659 103.344 27.5525C100.532 30.5037 96.9623 31.997 92.6722 31.997H80.3782V1.17036H92.6722V1.2059ZM92.6722 27.197C95.6284 27.197 98.0439 26.2014 99.8466 24.2104C101.721 22.2193 102.659 19.6593 102.659 16.637C102.659 13.5437 101.721 11.0548 99.8466 9.06373C98.0079 7.07253 95.5924 6.07699 92.6722 6.07699H85.5338V27.197H92.6722Z" fill="url(#paint3_linear_1865_3823)"/>
<path d="M135.214 23.1907C135.214 25.7164 134.313 27.8153 132.474 29.4873C130.636 31.1593 128.472 32.013 125.805 32.013H112.429V1.17036H124.831C127.391 1.17036 129.553 2.02419 131.32 3.62499C133.124 5.26133 133.989 7.28911 133.989 9.70808C133.989 12.4117 132.906 14.475 130.816 16.0048C133.556 17.4277 135.214 19.989 135.214 23.1907ZM117.584 5.93733V14.0482H124.866C127.138 14.0482 128.869 12.2694 128.869 9.99276C128.869 7.71596 127.138 5.93733 124.866 5.93733H117.584ZM125.84 27.2461C128.22 27.2461 130.095 25.3606 130.095 22.9417C130.095 20.5226 128.22 18.6372 125.84 18.6372H117.584V27.2817H125.84V27.2461Z" fill="url(#paint4_linear_1865_3823)"/>
<path d="M145.2 27.1749H159.045V32.013H140.081V1.17036H158.829V6.00842H145.2V14.0125H157.711V18.815H145.2V27.1749Z" fill="url(#paint5_linear_1865_3823)"/>
<path d="M181.47 32.013L174.836 20.7716H168.778V32.013H163.66V1.17036H176.169C178.982 1.17036 181.361 2.13082 183.272 4.08739C185.218 5.97288 186.229 8.32076 186.229 11.0955C186.229 15.0086 183.741 18.6016 180.028 20.0245L187.129 32.013H181.47ZM168.778 5.93722V16.2537H176.134C178.873 16.2537 181.037 13.977 181.037 11.0955C181.037 8.24956 178.838 5.93722 176.134 5.93722H168.778Z" fill="url(#paint6_linear_1865_3823)"/>
<path d="M208.833 32.0129L202.236 20.7657H196.178V32.0129H191.06V1.15425H203.569C206.382 1.15425 208.761 2.11528 210.672 4.07288C212.618 5.95928 213.629 8.30831 213.629 11.0845C213.629 14.9997 211.141 18.5946 207.428 20.0182L214.529 32.0129H208.833ZM196.178 5.92362V16.2454H203.534C206.273 16.2454 208.437 13.9675 208.437 11.0845C208.437 8.23722 206.238 5.92362 203.534 5.92362H196.178Z" fill="url(#paint7_linear_1865_3823)"/>
<path d="M218.279 1.15779H223.399V32.013H218.279V1.15779Z" fill="url(#paint8_linear_1865_3823)"/>
<path d="M234.575 27.1749H248.42V32.0129H229.455V1.17036H248.202V6.00842H234.575V14.0125H247.085V18.815H234.575V27.1749Z" fill="url(#paint9_linear_1865_3823)"/>
<path d="M251.989 24.9927L256.423 22.4326C257.685 25.9171 260.245 27.6237 264.174 27.6237C268.068 27.6237 269.978 25.9882 269.978 23.5705C269.978 22.2905 269.438 21.366 268.429 20.726C267.418 20.0505 265.544 19.3037 262.877 18.5216C259.884 17.6326 258.406 17.0637 256.314 15.7126C254.296 14.2905 253.286 12.2637 253.286 9.49048C253.286 6.75265 254.26 4.61939 256.242 3.01939C258.19 1.38373 260.569 0.601562 263.345 0.601562C268.357 0.601562 272.214 3.16156 274.233 7.39265L269.906 9.84602C268.608 7.00156 266.409 5.54373 263.345 5.54373C260.352 5.54373 258.441 7.03711 258.441 9.38373C258.441 11.6594 259.956 12.726 264.751 14.1837C265.941 14.5749 266.806 14.8594 267.346 15.0726C267.924 15.2505 268.68 15.5705 269.654 15.9616C270.664 16.3526 271.457 16.8149 271.926 17.206C273.584 18.486 275.35 20.5837 275.134 23.5349C275.134 26.3082 274.125 28.5482 272.07 30.1837C270.05 31.8194 267.383 32.6016 264.066 32.6016C258.009 32.566 253.61 29.7216 251.989 24.9927Z" fill="url(#paint10_linear_1865_3823)"/>
<defs>
<linearGradient id="paint0_linear_1865_3823" x1="0.866455" y1="16.6016" x2="275.152" y2="16.6016" gradientUnits="userSpaceOnUse">
<stop stop-color="#AF317E"/>
<stop offset="0.743494" stop-color="#64327A"/>
<stop offset="1" stop-color="#4A3378"/>
</linearGradient>
<linearGradient id="paint1_linear_1865_3823" x1="0.866455" y1="16.6016" x2="275.152" y2="16.6016" gradientUnits="userSpaceOnUse">
<stop stop-color="#AF317E"/>
<stop offset="0.743494" stop-color="#64327A"/>
<stop offset="1" stop-color="#4A3378"/>
</linearGradient>
<linearGradient id="paint2_linear_1865_3823" x1="0.866455" y1="16.6016" x2="275.152" y2="16.6016" gradientUnits="userSpaceOnUse">
<stop stop-color="#AF317E"/>
<stop offset="0.743494" stop-color="#64327A"/>
<stop offset="1" stop-color="#4A3378"/>
</linearGradient>
<linearGradient id="paint3_linear_1865_3823" x1="0.866455" y1="16.6016" x2="275.152" y2="16.6016" gradientUnits="userSpaceOnUse">
<stop stop-color="#AF317E"/>
<stop offset="0.743494" stop-color="#64327A"/>
<stop offset="1" stop-color="#4A3378"/>
</linearGradient>
<linearGradient id="paint4_linear_1865_3823" x1="0.866455" y1="16.6016" x2="275.152" y2="16.6016" gradientUnits="userSpaceOnUse">
<stop stop-color="#AF317E"/>
<stop offset="0.743494" stop-color="#64327A"/>
<stop offset="1" stop-color="#4A3378"/>
</linearGradient>
<linearGradient id="paint5_linear_1865_3823" x1="0.866455" y1="16.6016" x2="275.152" y2="16.6016" gradientUnits="userSpaceOnUse">
<stop stop-color="#AF317E"/>
<stop offset="0.743494" stop-color="#64327A"/>
<stop offset="1" stop-color="#4A3378"/>
</linearGradient>
<linearGradient id="paint6_linear_1865_3823" x1="0.866455" y1="16.6016" x2="275.152" y2="16.6016" gradientUnits="userSpaceOnUse">
<stop stop-color="#AF317E"/>
<stop offset="0.743494" stop-color="#64327A"/>
<stop offset="1" stop-color="#4A3378"/>
</linearGradient>
<linearGradient id="paint7_linear_1865_3823" x1="0.866455" y1="16.6016" x2="275.152" y2="16.6016" gradientUnits="userSpaceOnUse">
<stop stop-color="#AF317E"/>
<stop offset="0.743494" stop-color="#64327A"/>
<stop offset="1" stop-color="#4A3378"/>
</linearGradient>
<linearGradient id="paint8_linear_1865_3823" x1="0.866455" y1="16.6016" x2="275.152" y2="16.6016" gradientUnits="userSpaceOnUse">
<stop stop-color="#AF317E"/>
<stop offset="0.743494" stop-color="#64327A"/>
<stop offset="1" stop-color="#4A3378"/>
</linearGradient>
<linearGradient id="paint9_linear_1865_3823" x1="0.866455" y1="16.6016" x2="275.152" y2="16.6016" gradientUnits="userSpaceOnUse">
<stop stop-color="#AF317E"/>
<stop offset="0.743494" stop-color="#64327A"/>
<stop offset="1" stop-color="#4A3378"/>
</linearGradient>
<linearGradient id="paint10_linear_1865_3823" x1="0.866455" y1="16.6016" x2="275.152" y2="16.6016" gradientUnits="userSpaceOnUse">
<stop stop-color="#AF317E"/>
<stop offset="0.743494" stop-color="#64327A"/>
<stop offset="1" stop-color="#4A3378"/>
</linearGradient>
</defs>
</svg>
