<svg width="275" height="33" viewBox="0 0 275 33" fill="none" xmlns="http://www.w3.org/2000/svg">
<path d="M8.95294 32.017L0.581055 1.15436H6.07276L12.5052 24.8585L19.399 1.1523L24.5182 1.15436L31.4361 24.9844L37.8975 1.16019L43.3891 1.1523L35.0136 32.0115L28.6481 32.005L21.9607 8.95722L15.267 32.0109L8.95294 32.017Z" fill="black"/>
<path d="M47.1765 1.17036H52.404V31.997H47.1765V1.17036Z" fill="black"/>
<path d="M63.5805 27.1614H76.307V31.997H58.4611V1.17036H63.5805V27.1614Z" fill="black"/>
<path d="M92.3868 1.2059C96.6769 1.2059 100.246 2.69928 103.058 5.65036C105.906 8.60145 107.349 12.2637 107.349 16.6014C107.349 20.9037 105.906 24.5659 103.058 27.5525C100.246 30.5037 96.6769 31.997 92.3868 31.997H80.0928V1.17036H92.3868V1.2059ZM92.3868 27.197C95.343 27.197 97.7585 26.2014 99.5612 24.2104C101.436 22.2193 102.373 19.6593 102.373 16.637C102.373 13.5437 101.436 11.0548 99.5612 9.06373C97.7225 7.07253 95.307 6.07699 92.3868 6.07699H85.2484V27.197H92.3868Z" fill="black"/>
<path d="M134.928 23.1907C134.928 25.7164 134.028 27.8153 132.189 29.4873C130.35 31.1593 128.187 32.013 125.519 32.013H112.144V1.17036H124.546C127.106 1.17036 129.268 2.02419 131.035 3.62499C132.838 5.26133 133.703 7.28911 133.703 9.70808C133.703 12.4117 132.621 14.475 130.531 16.0048C133.27 17.4277 134.928 19.989 134.928 23.1907ZM117.299 5.93733V14.0482H124.581C126.853 14.0482 128.583 12.2694 128.583 9.99276C128.583 7.71596 126.853 5.93733 124.581 5.93733H117.299ZM125.555 27.2461C127.934 27.2461 129.81 25.3606 129.81 22.9417C129.81 20.5226 127.934 18.6372 125.555 18.6372H117.299V27.2817H125.555V27.2461Z" fill="black"/>
<path d="M144.915 27.1749H158.759V32.013H139.796V1.17036H158.543V6.00842H144.915V14.0125H157.426V18.815H144.915V27.1749Z" fill="black"/>
<path d="M181.184 32.013L174.55 20.7716H168.493V32.013H163.374V1.17036H175.884C178.696 1.17036 181.076 2.13082 182.987 4.08739C184.933 5.97288 185.943 8.32076 185.943 11.0955C185.943 15.0086 183.455 18.6016 179.742 20.0245L186.844 32.013H181.184ZM168.493 5.93722V16.2537H175.848C178.588 16.2537 180.751 13.977 180.751 11.0955C180.751 8.24956 178.552 5.93722 175.848 5.93722H168.493Z" fill="black"/>
<path d="M208.548 32.0129L201.95 20.7657H195.893V32.0129H190.774V1.15425H203.284C206.096 1.15425 208.476 2.11528 210.387 4.07288C212.333 5.95928 213.343 8.30831 213.343 11.0845C213.343 14.9997 210.855 18.5946 207.142 20.0182L214.244 32.0129H208.548ZM195.893 5.92362V16.2454H203.248C205.988 16.2454 208.151 13.9675 208.151 11.0845C208.151 8.23722 205.952 5.92362 203.248 5.92362H195.893Z" fill="black"/>
<path d="M217.994 1.15779H223.114V32.013H217.994V1.15779Z" fill="black"/>
<path d="M234.29 27.1749H248.134V32.0129H229.17V1.17036H247.917V6.00842H234.29V14.0125H246.799V18.815H234.29V27.1749Z" fill="black"/>
<path d="M251.703 24.9927L256.138 22.4326C257.399 25.9171 259.959 27.6237 263.888 27.6237C267.782 27.6237 269.693 25.9882 269.693 23.5705C269.693 22.2905 269.152 21.366 268.143 20.726C267.133 20.0505 265.259 19.3037 262.591 18.5216C259.598 17.6326 258.12 17.0637 256.029 15.7126C254.011 14.2905 253 12.2637 253 9.49048C253 6.75265 253.974 4.61939 255.957 3.01939C257.904 1.38373 260.284 0.601562 263.06 0.601562C268.071 0.601562 271.928 3.16156 273.948 7.39265L269.621 9.84602C268.323 7.00156 266.124 5.54373 263.06 5.54373C260.067 5.54373 258.156 7.03711 258.156 9.38373C258.156 11.6594 259.67 12.726 264.466 14.1837C265.655 14.5749 266.52 14.8594 267.061 15.0726C267.638 15.2505 268.395 15.5705 269.368 15.9616C270.379 16.3526 271.172 16.8149 271.64 17.206C273.299 18.486 275.064 20.5837 274.848 23.5349C274.848 26.3082 273.839 28.5482 271.784 30.1837C269.765 31.8194 267.098 32.6016 263.781 32.6016C257.724 32.566 253.325 29.7216 251.703 24.9927Z" fill="black"/>
</svg>
