<svg width="236" height="31" viewBox="0 0 236 31" fill="none" xmlns="http://www.w3.org/2000/svg">
<path d="M90.6968 26.2803C92.5511 26.2803 93.8646 25.9455 94.8433 25.2243V21.9535C93.8389 22.6489 92.6284 23.0867 90.9286 23.0867C88.0698 23.0867 86.8851 20.8718 86.8851 17.3692C86.8851 13.6862 88.3273 11.8061 90.9543 11.8061C92.4996 11.8061 94.0191 12.347 94.8175 12.8621V9.46246C93.9676 8.99887 92.4996 8.66406 90.4907 8.66406C85.3656 8.66406 82.7128 12.347 82.7128 17.4979C82.7386 23.1382 85.3398 26.2803 90.6968 26.2803ZM65.6374 24.7865V21.5157C64.4012 22.3656 62.2893 23.1125 60.3577 23.1125C57.4217 23.1125 56.3142 21.7217 56.1339 18.8887H65.8177V16.7768C65.8177 10.879 63.2165 8.66406 59.2245 8.66406C54.3311 8.66406 52.0132 12.3985 52.0132 17.5237C52.0132 23.4215 54.9235 26.2803 60.0229 26.2803C62.5726 26.2803 64.4527 25.5849 65.6374 24.7865ZM28.8855 8.97312V15.6693H23.5285V8.97312H19.5107V25.9455H23.5285V18.8629H28.8855V25.9455H32.9032V8.97312H28.8855ZM51.0088 22.7519H49.2317V8.97312H37.539V10.4154C37.539 14.5619 37.2815 19.9189 35.865 22.7519H34.5773V29.8087H38.2859V25.9455H47.2743V29.8087H50.983V22.7519H51.0088ZM78.4375 25.9455H82.9961L76.5574 16.8026L82.2235 8.97312H78.18L72.5139 16.8026V8.97312H68.4962V25.9455H72.5139V17.6009L78.4375 25.9455ZM59.1215 11.8061C61.1046 11.8061 61.7227 13.4544 61.7227 15.5921V15.9269H56.1339C56.237 13.2226 57.2156 11.8061 59.1215 11.8061ZM45.214 22.7519H39.5479C40.6554 20.2022 40.9644 15.5663 40.9644 12.6303V12.1152H45.214V22.7519Z" fill="black"/>
<path d="M16.1627 25.9446H12.0677V5.67564H10.2391C6.89096 5.67564 5.13964 7.3497 5.13964 9.84791C5.13964 12.6809 6.35011 13.9944 8.84832 15.6685L10.9087 17.0592L4.98511 25.9446H0.581055L5.91228 18.0122C2.84747 15.823 1.1219 13.6854 1.1219 10.0797C1.1219 5.57262 4.26398 2.50781 10.2133 2.50781H16.1369V25.9446H16.1627Z" fill="black"/>
<path d="M147.202 26.1547H150.502L155.102 9.05469V26.1547H158.802V3.55469H153.702L149.102 20.1547L144.502 3.55469H139.302V26.1547H142.502V9.05469L147.202 26.1547ZM174.302 14.9547C174.302 10.9547 172.302 9.45469 168.202 9.45469C165.602 9.45469 163.602 10.2547 162.402 10.9547V14.1547C163.402 13.3547 165.702 12.5547 167.702 12.5547C169.602 12.5547 170.402 13.2547 170.402 14.9547V15.8547H169.802C163.902 15.8547 161.202 17.8547 161.202 21.1547C161.202 24.4547 163.202 26.3547 166.202 26.3547C168.502 26.3547 169.502 25.6547 170.202 24.8547H170.402C170.402 25.2547 170.602 25.8547 170.702 26.1547H174.502C174.402 24.8547 174.302 23.4547 174.302 22.1547V14.9547ZM170.402 22.2547C169.902 22.9547 169.002 23.5547 167.602 23.5547C166.002 23.5547 165.202 22.5547 165.202 21.1547C165.202 19.2547 166.502 18.5547 169.902 18.5547H170.502V22.2547H170.402ZM181.002 9.75469H177.402V30.8547H181.302V24.2547C182.302 25.7547 183.702 26.4547 185.402 26.4547C189.202 26.4547 191.802 23.4547 191.802 17.9547C191.802 12.4547 189.302 9.45469 185.602 9.45469C183.802 9.45469 182.302 10.2547 181.202 11.8547L181.002 9.75469ZM184.302 23.4547C182.302 23.4547 181.202 21.7547 181.202 18.0547C181.202 14.2547 182.302 12.5547 184.502 12.5547C186.602 12.5547 187.702 14.2547 187.702 17.9547C187.702 21.7547 186.602 23.4547 184.302 23.4547ZM203.902 26.1547H208.302L202.102 17.3547L207.602 9.75469H203.702L198.202 17.3547V9.75469H194.302V26.1547H198.202V18.1547L203.902 26.1547ZM221.302 25.0547V21.8547C220.102 22.6547 218.102 23.3547 216.202 23.3547C213.402 23.3547 212.302 22.0547 212.102 19.2547H221.402V17.1547C221.402 11.4547 218.902 9.35469 215.002 9.35469C210.302 9.35469 208.002 12.9547 208.002 17.9547C208.002 23.6547 210.802 26.4547 215.702 26.4547C218.402 26.4547 220.202 25.8547 221.302 25.0547ZM215.002 12.5547C216.902 12.5547 217.502 14.1547 217.502 16.1547V16.4547H212.102C212.202 13.8547 213.202 12.5547 215.002 12.5547ZM235.302 12.8547V9.75469H222.302V12.8547H226.902V26.1547H230.802V12.8547H235.302Z" fill="black"/>
<path d="M116.202 30.1562C124.502 30.1562 131.202 23.4562 131.202 15.1562C131.202 6.85625 124.502 0.15625 116.202 0.15625C107.902 0.15625 101.202 6.85625 101.202 15.1562C101.102 23.4562 107.902 30.1562 116.202 30.1562Z" fill="#FED42B"/>
<path d="M129.926 21.2305C130.747 19.375 131.202 17.3203 131.202 15.1562C131.202 14.1523 131.104 13.168 130.917 12.2188C128.769 15.4531 126.7 17.7461 125.602 17.457C123.702 16.957 125.402 10.8594 126.502 6.95703V6.85938L120.402 4.75781L113.102 16.6562L114.102 10.1562L108.802 8.35938L101.443 18.0039C101.814 20.0234 102.602 21.8984 103.711 23.543L108.902 16.6562L107.902 23.7578L113.402 25.6562L120.102 14.957C119.802 16.957 119.302 21.5586 123.702 22.957C125.892 23.625 127.991 22.8281 129.926 21.2305Z" fill="black"/>
</svg>
