<svg width="71" height="63" viewBox="0 0 71 63" fill="none" xmlns="http://www.w3.org/2000/svg">
<path fill-rule="evenodd" clip-rule="evenodd" d="M47.312 0.98262C50.1384 0.845868 51.4629 4.15846 49.6734 6.08994C47.3044 8.64704 44.3795 11.8356 41.9746 14.9592C40.7729 16.52 39.7337 18.0232 38.9683 19.388C38.2068 20.7459 37.8009 21.8202 37.6884 22.5925L37.5428 25.1339L37.3923 27.7598L37.3872 27.8478L37.3751 27.9351C37.3136 28.3798 37.2659 28.7067 37.2303 28.9226C37.2148 29.017 37.1928 29.1448 37.1658 29.2605C37.1581 29.2933 37.1452 29.3459 37.1269 29.4076L37.1265 29.409C37.1148 29.4484 37.0713 29.5949 36.9868 29.7664C36.9512 29.8387 36.8407 30.0585 36.6297 30.2875C36.4757 30.4547 35.7836 31.1466 34.6679 30.9691C33.6103 30.8008 33.161 29.9954 33.0751 29.8348C32.9399 29.5821 32.8872 29.3622 32.8697 29.2858C32.8289 29.1078 32.8196 28.9624 32.8171 28.9223L32.817 28.9214C32.813 28.8592 32.8122 28.8069 32.8119 28.7743C32.8115 28.7082 32.8134 28.6471 32.8151 28.604C32.8186 28.514 32.825 28.4107 32.8321 28.3084C32.8465 28.0996 32.869 27.8233 32.8954 27.5123C32.9218 27.2016 32.9526 26.8504 32.9852 26.4782L32.9856 26.4739C33.0778 25.422 33.1846 24.2036 33.2483 23.2632C30.9743 16.6569 30.855 11.1381 33.5082 7.1163C36.2031 3.03112 41.2358 1.27661 47.312 0.98262ZM35.9939 15.8115C36.7382 14.6414 37.5923 13.4515 38.4944 12.2798C40.2245 10.0326 42.1912 7.77544 44.0148 5.76008C40.5463 6.40618 38.3567 7.74274 37.1744 9.53487C36.2237 10.976 35.7272 13.0083 35.9939 15.8115ZM47.4029 27.4556C42.9177 29.2716 39.2473 33.6969 38.3192 40.8199C39.3516 39.8737 40.4423 39.0192 41.5741 38.2484C41.8841 37.0759 44.7936 30.9089 46.8929 31.4641C47.6717 31.6701 46.8929 35.3152 46.8929 35.3152C48.1707 34.7504 49.4672 34.2636 50.7636 33.845C50.7636 33.845 55.7099 27.2154 55.7161 32.5499C59.2671 31.8222 62.6871 31.5218 65.6095 31.4641C59.1753 26.3641 52.427 25.4214 47.4029 27.4556ZM45.7545 23.3846C60.1591 18.8443 67.5934 26.7344 70.5028 31.187C71.3013 32.409 70.3327 33.9165 68.884 34.0955C64.3622 34.6544 57.7857 36.3497 53.1572 37.7036C50.1966 38.5695 47.2885 39.7896 44.6676 41.4683C42.0095 43.1709 39.651 45.3421 37.8176 48.1013C37.8068 48.133 37.7927 48.1771 37.7759 48.2357C37.7067 48.4777 37.628 48.8362 37.5457 49.313C37.3822 50.2596 37.2341 51.4956 37.105 52.8295C36.8478 55.4871 36.681 58.3733 36.6087 59.7623C36.5961 60.0041 36.5577 60.3175 36.4446 60.6425C36.3893 60.8012 36.2871 61.0481 36.0972 61.3038C35.9257 61.5348 35.5159 61.9945 34.7964 62.164C33.9592 62.3613 33.2504 62.0458 32.8289 61.6875C32.4646 61.3779 32.2854 61.0281 32.2052 60.8474C32.037 60.4684 31.9893 60.1031 31.9712 59.8774C31.8475 58.3384 31.9832 55.3704 32.3019 52.6492C32.4636 51.2689 32.6807 49.8769 32.9578 48.6972C33.096 48.1084 33.2581 47.534 33.4508 47.0227C33.5309 46.8101 33.6284 46.5751 33.7485 46.3368C33.1659 34.7324 38.0605 26.4998 45.7545 23.3846ZM16.3953 19.5937C14.0916 18.8814 11.6185 18.3452 9.03786 18.008C9.98257 17.5335 10.9886 17.106 12.0244 16.7608C14.5026 15.9351 16.9908 15.6328 19.1639 16.1203C21.2541 16.5892 23.2113 17.8184 24.7236 20.4106C25.3847 21.5439 25.9691 22.9543 26.4292 24.6945C25.1267 23.6384 23.6511 22.6979 22.0648 21.8809C22.0648 21.8809 17.0983 13.7157 16.3953 19.5937ZM19.3948 25.458C24.251 27.7877 26.9829 30.8477 27.4973 33.8582C27.5168 35.4337 27.523 37.4376 27.5289 39.3398L27.5289 39.3428C27.5316 40.2097 27.5342 41.0555 27.5379 41.8298C27.5441 43.0811 27.5533 44.1612 27.5717 44.8166C27.5764 44.9816 27.582 45.1339 27.5892 45.2623L27.5896 45.2701C27.5942 45.3521 27.6059 45.5639 27.6452 45.7646C27.6547 45.8133 27.6881 45.9839 27.7694 46.1852C27.8063 46.2764 27.9047 46.5076 28.1048 46.7536C28.2858 46.976 28.8251 47.5389 29.7501 47.5647C30.6858 47.5907 31.2601 47.0477 31.4592 46.8226C31.6742 46.5794 31.7831 46.3461 31.8236 46.2552C31.9131 46.0538 31.9525 45.8818 31.9637 45.8328C32.0104 45.6286 32.0295 45.4087 32.0377 45.3141L32.0383 45.3076C32.1311 44.2377 32.09 41.6612 32.0347 39.3128C32.0067 38.1234 31.9739 36.9617 31.9462 35.9807L31.9461 35.9771C31.9166 34.9305 31.8929 34.09 31.887 33.6417C31.7967 26.802 30.5957 21.7602 28.5173 18.1975C26.3955 14.5602 23.4171 12.5732 20.1253 11.8347C16.9165 11.1149 13.5767 11.6141 10.636 12.594C7.68187 13.5783 4.96902 15.1003 2.92586 16.6332C-4.40757 21.6215 4.35589 22.0308 4.35589 22.0308C9.96721 22.2832 15.4066 23.5446 19.3948 25.458ZM31.9786 45.0774C31.9786 45.0774 31.9783 45.0748 31.9776 45.066L31.9786 45.0774Z" fill="url(#paint0_linear_3647_573)"/>
<defs>
<linearGradient id="paint0_linear_3647_573" x1="36" y1="-0.516026" x2="36" y2="62.2241" gradientUnits="userSpaceOnUse">
<stop stop-color="#805399"/>
<stop offset="1" stop-color="#65A30D"/>
</linearGradient>
</defs>
</svg>
