<svg width="60" height="53" viewBox="0 0 60 53" fill="none" xmlns="http://www.w3.org/2000/svg">
<path d="M36.2214 46.116C36.7967 48.8222 35.0765 51.471 32.3703 52.0463C29.6641 52.6215 27.0152 50.9013 26.44 48.1951C25.8647 45.4889 27.5849 42.84 30.2911 42.2648C32.9974 41.6896 35.6462 43.4098 36.2214 46.116ZM57.4146 41.6112C57.9899 44.3174 56.2697 46.9663 53.5635 47.5415C50.8573 48.1167 48.2084 46.3965 47.6332 43.6903C47.0579 40.9841 48.7781 38.3352 51.4843 37.76C54.1906 37.1848 56.8394 38.905 57.4146 41.6112ZM59.459 3.4523L58.4823 30.9223C58.4639 31.4818 58.2582 32.0188 57.8983 32.4475C57.5384 32.8762 57.045 33.1717 56.4972 33.2867L23.8922 40.2171C22.7185 40.4666 21.5275 39.8337 21.0498 38.7084L7.69372 6.17439L3.22685 7.12385C1.89005 7.408 0.545847 6.53506 0.261701 5.19826C-0.0224448 3.86146 0.850489 2.51726 2.18729 2.23311L8.70827 0.847034C9.88205 0.59754 11.073 1.23043 11.5507 2.35569L14.6022 9.81765L56.4343 0.925964C56.8054 0.848712 57.1892 0.856402 57.5569 0.948462C57.9246 1.04052 58.2667 1.21457 58.5577 1.45756C58.8486 1.70056 59.0808 2.00622 59.2369 2.35166C59.393 2.6971 59.4689 3.07337 59.459 3.4523ZM54.3438 6.48202L16.5221 14.5213L24.8742 34.8967L53.5339 28.8049L54.3112 6.48895L54.3438 6.48202Z" fill="url(#paint0_linear_3647_387)"/>
<defs>
<linearGradient id="paint0_linear_3647_387" x1="29.8339" y1="-0.460426" x2="29.8339" y2="52.1565" gradientUnits="userSpaceOnUse">
<stop stop-color="#805399"/>
<stop offset="1" stop-color="#65A30D"/>
</linearGradient>
</defs>
</svg>
