<svg width="72" height="73" viewBox="0 0 72 73" fill="none" xmlns="http://www.w3.org/2000/svg">
<g id="Icons">
<g id="Vector">
<path d="M62.1332 45.9198C62.9653 46.9313 62.8936 48.4091 61.9675 49.3352L51.777 59.5257C50.9718 60.3308 49.6579 60.3023 48.8885 59.4629L44.1182 54.2589C43.2692 53.3328 43.3003 51.9024 44.1887 51.014C45.1051 50.0976 46.5908 50.0976 47.5072 51.014L50.3 53.8067L58.3695 45.7372C59.4319 44.6748 61.1786 44.7596 62.1332 45.9198Z" fill="url(#paint0_linear_1854_9513)"/>
<path fill-rule="evenodd" clip-rule="evenodd" d="M32.9423 57.4027C35.2605 57.4027 37 55.4198 37 53.1016C37 43.6016 43 37.6016 52.5 37.6016C53.534 37.6016 54.5443 37.7028 55.5217 37.8959C55.5904 37.9034 55.659 37.9112 55.7274 37.9195C57.562 38.1413 59.4 36.8507 59.4 35.0027L57.5182 20.7552C56.9927 16.7764 53.6005 13.8027 49.5871 13.8027H18.8128C14.7994 13.8027 11.4072 16.7764 10.8817 20.7552L8.99997 34.0027C8.49995 38.1016 9.5 39.6016 11.8 39.6027V49.4027C11.8 53.821 15.3817 57.4027 19.8 57.4027H32.9423ZM30.2 51.8027C31.3045 51.8027 32.2 50.9073 32.2 49.8027V42.6027C32.2 41.4982 31.3045 40.6027 30.2 40.6027H19.4C18.2954 40.6027 17.4 41.4982 17.4 42.6027V49.8027C17.4 50.9073 18.2954 51.8027 19.4 51.8027H30.2ZM14.9504 31.7886C14.8231 32.9711 14.5938 34.0027 16.9389 34.0027H51.461C52.6503 34.0027 53.5769 32.9711 53.4495 31.7886L52.2964 22.0815C52.1324 20.5578 50.8462 19.4027 49.3137 19.4027H19.0862C17.5537 19.4027 16.2676 20.5578 16.1035 22.0815L14.9504 31.7886Z" fill="url(#paint1_linear_1854_9513)"/>
</g>
</g>
<defs>
<linearGradient id="paint0_linear_1854_9513" x1="35.7933" y1="12.6727" x2="35.7933" y2="60.1109" gradientUnits="userSpaceOnUse">
<stop stop-color="#805399"/>
<stop offset="1" stop-color="#65A30D"/>
</linearGradient>
<linearGradient id="paint1_linear_1854_9513" x1="35.7933" y1="12.6727" x2="35.7933" y2="60.1109" gradientUnits="userSpaceOnUse">
<stop stop-color="#805399"/>
<stop offset="1" stop-color="#65A30D"/>
</linearGradient>
</defs>
</svg>
