<svg width="72" height="73" viewBox="0 0 72 73" fill="none" xmlns="http://www.w3.org/2000/svg">
<path fill-rule="evenodd" clip-rule="evenodd" d="M13.3119 36.6961L34.9246 6.61001C38.8297 1.17391 47.3564 5.2462 45.5832 11.7001L41.5676 26.3159H53.8155C58.6951 26.3159 61.534 31.8309 58.6987 35.8022L54.6293 32.897C55.1019 32.2351 54.6287 31.3159 53.8155 31.3159H36.3204C35.6603 31.3159 35.1813 30.6876 35.3562 30.051L40.7619 10.3755C41.0574 9.29983 39.6363 8.62115 38.9855 9.52715L17.3728 39.6132C16.8975 40.2748 17.3703 41.1966 18.1849 41.1966H36.5925C37.273 41.1966 37.7548 41.8616 37.5427 42.5082L30.8959 62.7761C30.5391 63.8642 31.9946 64.6007 32.66 63.6687L54.6293 32.897L58.6987 35.8022L36.7293 66.574C32.7369 72.1661 24.0038 67.7466 26.1449 61.218L31.0711 46.1966H18.1849C13.2973 46.1966 10.4603 40.6656 13.3119 36.6961Z" fill="url(#paint0_linear_1854_9515)"/>
<defs>
<linearGradient id="paint0_linear_1854_9515" x1="36.0002" y1="2.49082" x2="36.0002" y2="69.125" gradientUnits="userSpaceOnUse">
<stop stop-color="#805399"/>
<stop offset="1" stop-color="#65A30D"/>
</linearGradient>
</defs>
</svg>
