<svg width="275" height="33" viewBox="0 0 275 33" fill="none" xmlns="http://www.w3.org/2000/svg">
<path d="M8.54596 31.517L0.174072 0.654362H5.66577L12.0982 24.3585L18.992 0.652305L24.1112 0.654362L31.0292 24.4844L37.4905 0.660191L42.9821 0.652305L34.6066 31.5115L28.2412 31.505L21.5537 8.45722L14.86 31.5109L8.54596 31.517Z" fill="black"/>
<path d="M46.7695 0.670362H51.997V31.497H46.7695V0.670362Z" fill="black"/>
<path d="M63.1735 26.6614H75.9V31.497H58.0541V0.670362H63.1735V26.6614Z" fill="black"/>
<path d="M91.9798 0.705904C96.27 0.705904 99.8392 2.19928 102.651 5.15036C105.499 8.10145 106.942 11.7637 106.942 16.1014C106.942 20.4037 105.499 24.0659 102.651 27.0525C99.8392 30.0037 96.27 31.497 91.9798 31.497H79.6858V0.670362H91.9798V0.705904ZM91.9798 26.697C94.936 26.697 97.3515 25.7014 99.1542 23.7104C101.029 21.7193 101.966 19.1593 101.966 16.137C101.966 13.0437 101.029 10.5548 99.1542 8.56373C97.3156 6.57253 94.9 5.57699 91.9798 5.57699H84.8414V26.697H91.9798Z" fill="black"/>
<path d="M134.521 22.6907C134.521 25.2164 133.621 27.3153 131.782 28.9873C129.943 30.6593 127.78 31.513 125.112 31.513H111.737V0.670362H124.139C126.699 0.670362 128.861 1.52419 130.628 3.12499C132.431 4.76133 133.296 6.78911 133.296 9.20808C133.296 11.9117 132.214 13.975 130.124 15.5048C132.863 16.9277 134.521 19.489 134.521 22.6907ZM116.892 5.43733V13.5482H124.174C126.446 13.5482 128.176 11.7694 128.176 9.49276C128.176 7.21596 126.446 5.43733 124.174 5.43733H116.892ZM125.148 26.7461C127.527 26.7461 129.403 24.8606 129.403 22.4417C129.403 20.0226 127.527 18.1372 125.148 18.1372H116.892V26.7817H125.148V26.7461Z" fill="black"/>
<path d="M144.508 26.6749H158.352V31.513H139.389V0.670362H158.136V5.50842H144.508V13.5125H157.019V18.315H144.508V26.6749Z" fill="black"/>
<path d="M180.777 31.513L174.143 20.2716H168.086V31.513H162.967V0.670362H175.477C178.289 0.670362 180.669 1.63082 182.58 3.58739C184.526 5.47288 185.536 7.82076 185.536 10.5955C185.536 14.5086 183.048 18.1016 179.335 19.5245L186.437 31.513H180.777ZM168.086 5.43722V15.7537H175.441C178.181 15.7537 180.344 13.477 180.344 10.5955C180.344 7.74956 178.145 5.43722 175.441 5.43722H168.086Z" fill="black"/>
<path d="M208.141 31.5129L201.543 20.2657H195.486V31.5129H190.367V0.654249H202.877C205.689 0.654249 208.069 1.61528 209.98 3.57288C211.926 5.45928 212.936 7.80831 212.936 10.5845C212.936 14.4997 210.448 18.0946 206.735 19.5182L213.837 31.5129H208.141ZM195.486 5.42362V15.7454H202.841C205.581 15.7454 207.744 13.4675 207.744 10.5845C207.744 7.73722 205.545 5.42362 202.841 5.42362H195.486Z" fill="black"/>
<path d="M217.587 0.657791H222.707V31.513H217.587V0.657791Z" fill="black"/>
<path d="M233.883 26.6749H247.727V31.5129H228.763V0.670362H247.51V5.50842H233.883V13.5125H246.392V18.315H233.883V26.6749Z" fill="black"/>
<path d="M251.296 24.4927L255.731 21.9326C256.992 25.4171 259.552 27.1237 263.481 27.1237C267.375 27.1237 269.286 25.4882 269.286 23.0705C269.286 21.7905 268.745 20.866 267.736 20.226C266.726 19.5505 264.852 18.8037 262.184 18.0216C259.191 17.1326 257.713 16.5637 255.622 15.2126C253.604 13.7905 252.593 11.7637 252.593 8.99048C252.593 6.25265 253.567 4.11939 255.55 2.51939C257.497 0.883735 259.877 0.101562 262.653 0.101562C267.664 0.101562 271.521 2.66156 273.541 6.89265L269.214 9.34602C267.916 6.50156 265.717 5.04373 262.653 5.04373C259.66 5.04373 257.749 6.53711 257.749 8.88373C257.749 11.1594 259.263 12.226 264.059 13.6837C265.248 14.0749 266.113 14.3594 266.654 14.5726C267.231 14.7505 267.988 15.0705 268.961 15.4616C269.972 15.8526 270.765 16.3149 271.233 16.706C272.892 17.986 274.657 20.0837 274.441 23.0349C274.441 25.8082 273.432 28.0482 271.377 29.6837C269.358 31.3194 266.691 32.1016 263.374 32.1016C257.317 32.066 252.918 29.2216 251.296 24.4927Z" fill="black"/>
</svg>
