<svg width="352" height="48" viewBox="0 0 352 48" fill="none" xmlns="http://www.w3.org/2000/svg">
<path d="M135.316 40.2468C138.095 40.2468 140.063 39.7451 141.53 38.6645V33.7633C140.025 34.8053 138.211 35.4614 135.664 35.4614C131.38 35.4614 129.605 32.1425 129.605 26.8939C129.605 21.3753 131.766 18.5581 135.702 18.5581C138.018 18.5581 140.295 19.3685 141.491 20.1403V15.0462C140.218 14.3515 138.018 13.8498 135.008 13.8498C127.328 13.8498 123.353 19.3685 123.353 27.0869C123.391 35.5386 127.289 40.2468 135.316 40.2468ZM97.7663 38.0085V33.1073C95.9139 34.3808 92.7493 35.5 89.8549 35.5C85.4554 35.5 83.796 33.416 83.5258 29.1709H98.0365V26.0063C98.0365 17.1687 94.1386 13.8498 88.1569 13.8498C80.8244 13.8498 77.3511 19.4457 77.3511 27.1255C77.3511 35.9631 81.712 40.2468 89.3532 40.2468C93.1738 40.2468 95.9911 39.2048 97.7663 38.0085ZM42.6954 14.3129V24.3469H34.6682V14.3129H28.6479V39.7451H34.6682V29.1323H42.6954V39.7451H48.7157V14.3129H42.6954ZM75.846 34.9597H73.1831V14.3129H55.6623V16.4741C55.6623 22.6874 55.2764 30.7146 53.1538 34.9597H51.2242V45.5339H56.7815V39.7451H70.2501V45.5339H75.8074V34.9597H75.846ZM116.947 39.7451H123.777L114.129 26.0449L122.62 14.3129H116.561L108.07 26.0449V14.3129H102.05V39.7451H108.07V27.2413L116.947 39.7451ZM88.0025 18.5581C90.9741 18.5581 91.9003 21.0279 91.9003 24.2311V24.7328H83.5258C83.6802 20.6806 85.1467 18.5581 88.0025 18.5581ZM67.1628 34.9597H58.6725C60.332 31.1391 60.7951 24.1925 60.7951 19.793V19.0212H67.1628V34.9597Z" fill="black"/>
<path d="M23.6309 39.7438H17.4948V9.37183H14.7548C9.73778 9.37183 7.11352 11.8803 7.11352 15.6237C7.11352 19.8689 8.92734 21.8371 12.6708 24.3456L15.7581 26.4295L6.88196 39.7438H0.282715L8.27128 27.8574C3.67882 24.5771 1.09315 21.374 1.09315 15.9711C1.09315 9.21746 5.80138 4.625 14.7162 4.625H23.5923V39.7438H23.6309Z" fill="black"/>
<path d="M219.987 40.0602H224.932L231.825 14.4368V40.0602H237.369V6.19531H229.727L222.834 31.0695L215.941 6.19531H208.149V40.0602H212.944V14.4368L219.987 40.0602ZM260.595 23.2776C260.595 17.2838 257.598 15.0362 251.454 15.0362C247.558 15.0362 244.561 16.2349 242.763 17.2838V22.0789C244.262 20.8801 247.708 19.6813 250.705 19.6813C253.552 19.6813 254.751 20.7303 254.751 23.2776V24.6262H253.852C245.011 24.6262 240.965 27.6231 240.965 32.568C240.965 37.5129 243.962 40.3599 248.457 40.3599C251.904 40.3599 253.402 39.311 254.451 38.1122H254.751C254.751 38.7116 255.051 39.6107 255.2 40.0602H260.895C260.745 38.1122 260.595 36.0144 260.595 34.0664V23.2776ZM254.751 34.2163C254.002 35.2652 252.653 36.1643 250.555 36.1643C248.158 36.1643 246.959 34.6658 246.959 32.568C246.959 29.7209 248.907 28.672 254.002 28.672H254.901V34.2163H254.751ZM270.634 15.4857H265.24V47.1029H271.084V37.2132C272.582 39.4608 274.68 40.5098 277.228 40.5098C282.922 40.5098 286.818 36.0144 286.818 27.773C286.818 19.5315 283.072 15.0362 277.527 15.0362C274.83 15.0362 272.582 16.2349 270.934 18.6324L270.634 15.4857ZM275.579 36.0144C272.582 36.0144 270.934 33.4671 270.934 27.9228C270.934 22.2287 272.582 19.6813 275.879 19.6813C279.026 19.6813 280.674 22.2287 280.674 27.773C280.674 33.4671 279.026 36.0144 275.579 36.0144ZM304.949 40.0602H311.542L302.252 26.8739L310.493 15.4857H304.649L296.408 26.8739V15.4857H290.564V40.0602H296.408V28.0726L304.949 40.0602ZM331.022 38.4119V33.6169C329.224 34.8157 326.227 35.8646 323.38 35.8646C319.184 35.8646 317.536 33.9166 317.236 29.7209H331.172V26.5742C331.172 18.033 327.426 14.8863 321.582 14.8863C314.539 14.8863 311.093 20.2807 311.093 27.773C311.093 36.3141 315.288 40.5098 322.631 40.5098C326.676 40.5098 329.374 39.6107 331.022 38.4119ZM321.582 19.6813C324.429 19.6813 325.328 22.0789 325.328 25.0758V25.5253H317.236C317.386 21.6293 318.884 19.6813 321.582 19.6813ZM352 20.1309V15.4857H332.52V20.1309H339.413V40.0602H345.257V20.1309H352Z" fill="black"/>
<path d="M196.012 23.1291C196.012 35.5662 185.972 45.6058 173.535 45.6058C165.757 45.6058 158.858 41.6794 154.818 35.6957L162.596 25.3767L161.097 36.018L169.339 38.8628L179.379 22.8305C178.929 25.8274 178.18 32.7226 184.773 34.8181C188.055 35.819 191.2 34.625 194.1 32.231C195.33 29.4506 196.012 26.3718 196.012 23.1291Z" fill="black"/>
<path d="M195.583 18.7278C193.544 8.40664 184.465 0.652344 173.535 0.652344C161.098 0.652344 151.058 10.6919 151.058 23.1291C151.041 24.5883 151.165 26.0145 151.419 27.3953L162.446 12.9443L170.388 15.6368L168.889 25.3767L179.828 7.54754L188.969 10.6966V10.843C187.32 16.6904 184.773 25.8274 187.62 26.5767C189.266 27.0098 192.365 23.5741 195.583 18.7278Z" fill="black"/>
</svg>
